<svg xmlns="http://www.w3.org/2000/svg" xmlns:xlink="http://www.w3.org/1999/xlink" width="300" zoomAndPan="magnify" viewBox="0 0 224.87999 225" height="300" preserveAspectRatio="xMidYMid meet" version="1.0"><defs><clipPath id="cf0e665104"><path d="M 38.058594 31.539062 L 149 31.539062 L 149 193.453125 L 38.058594 193.453125 Z M 38.058594 31.539062 " clip-rule="nonzero"/></clipPath><clipPath id="4a68b7efbc"><path d="M 174 99 L 186.476562 99 L 186.476562 112 L 174 112 Z M 174 99 " clip-rule="nonzero"/></clipPath><clipPath id="9eef420271"><path d="M 51 133 L 85 133 L 85 155.046875 L 51 155.046875 Z M 51 133 " clip-rule="nonzero"/></clipPath><clipPath id="4e7969d712"><path d="M 108.460938 117 L 132.8125 117 L 132.8125 155.046875 L 108.460938 155.046875 Z M 108.460938 117 " clip-rule="nonzero"/></clipPath><clipPath id="4503a79b63"><path d="M 74 59.101562 L 104 59.101562 L 104 96 L 74 96 Z M 74 59.101562 " clip-rule="nonzero"/></clipPath></defs><path fill="#ffffff" d="M 153.589844 148.914062 C 153.496094 148.914062 153.410156 148.890625 153.328125 148.847656 C 153.25 148.804688 153.183594 148.742188 153.132812 148.667969 C 153.082031 148.589844 153.050781 148.503906 153.042969 148.414062 C 153.035156 148.320312 153.050781 148.234375 153.085938 148.148438 C 153.265625 147.675781 153.457031 147.160156 153.664062 146.578125 C 153.742188 146.324219 153.914062 146.199219 154.179688 146.199219 C 154.332031 146.199219 154.460938 146.25 154.566406 146.359375 C 154.671875 146.464844 154.726562 146.59375 154.726562 146.746094 C 154.726562 146.808594 154.714844 146.871094 154.695312 146.933594 C 154.480469 147.535156 154.285156 148.066406 154.101562 148.558594 C 154.070312 148.632812 154.03125 148.695312 153.972656 148.753906 C 153.867188 148.859375 153.738281 148.914062 153.589844 148.914062 Z M 153.589844 148.914062 " fill-opacity="1" fill-rule="nonzero"/><path fill="#ffffff" d="M 159.773438 106.945312 C 159.628906 106.945312 159.503906 106.898438 159.398438 106.796875 C 159.292969 106.699219 159.238281 106.574219 159.230469 106.429688 C 159.078125 103.761719 158.824219 101.085938 158.476562 98.484375 C 157.636719 92.089844 156.1875 85.839844 154.128906 79.734375 C 154.070312 79.609375 154.0625 79.484375 154.097656 79.351562 C 154.132812 79.222656 154.207031 79.121094 154.320312 79.042969 C 154.433594 78.96875 154.554688 78.9375 154.691406 78.957031 C 154.824219 78.972656 154.9375 79.03125 155.027344 79.128906 C 155.070312 79.175781 155.101562 79.226562 155.125 79.28125 C 155.132812 79.300781 155.140625 79.316406 155.148438 79.335938 C 157.234375 85.523438 158.707031 91.859375 159.558594 98.339844 C 159.910156 100.96875 160.167969 103.671875 160.316406 106.371094 C 160.328125 106.519531 160.28125 106.652344 160.179688 106.765625 C 160.078125 106.878906 159.953125 106.9375 159.804688 106.945312 C 159.792969 106.945312 159.785156 106.945312 159.773438 106.945312 Z M 159.773438 106.945312 " fill-opacity="1" fill-rule="nonzero"/><g clip-path="url(#cf0e665104)"><path fill="#ffffff" d="M 99.324219 193.441406 C 91.046875 193.441406 83.015625 191.289062 75.460938 187.050781 C 68.175781 182.964844 61.636719 177.117188 56.023438 169.671875 C 44.5 154.390625 38.15625 134.082031 38.15625 112.484375 C 38.15625 90.890625 44.5 70.582031 56.023438 55.300781 C 61.636719 47.855469 68.175781 42.007812 75.460938 37.917969 C 83.015625 33.683594 91.046875 31.53125 99.324219 31.53125 C 103.023438 31.539062 106.675781 31.972656 110.277344 32.824219 C 113.882812 33.679688 117.339844 34.933594 120.652344 36.585938 C 127.222656 39.820312 133.292969 44.503906 138.683594 50.507812 C 138.78125 50.621094 138.824219 50.75 138.8125 50.898438 C 138.804688 51.046875 138.746094 51.171875 138.636719 51.269531 C 138.523438 51.371094 138.394531 51.417969 138.246094 51.410156 C 138.097656 51.40625 137.972656 51.347656 137.871094 51.238281 C 132.574219 45.339844 126.617188 40.742188 120.171875 37.570312 C 116.933594 35.949219 113.554688 34.726562 110.03125 33.890625 C 106.511719 33.054688 102.941406 32.632812 99.324219 32.625 C 91.234375 32.625 83.382812 34.730469 75.992188 38.875 C 68.839844 42.886719 62.414062 48.636719 56.890625 55.960938 C 45.515625 71.050781 39.246094 91.125 39.246094 112.488281 C 39.246094 133.847656 45.515625 153.921875 56.890625 169.011719 C 62.414062 176.335938 68.839844 182.085938 75.992188 186.097656 C 83.382812 190.242188 91.234375 192.347656 99.324219 192.347656 C 102.753906 192.34375 106.140625 191.964844 109.488281 191.207031 L 109.515625 191.199219 C 117.113281 189.472656 124.292969 185.863281 130.855469 180.46875 C 137.414062 175.078125 143.066406 168.167969 147.652344 159.925781 C 147.707031 159.8125 147.792969 159.730469 147.910156 159.679688 C 148.023438 159.625 148.140625 159.617188 148.265625 159.644531 C 148.386719 159.675781 148.484375 159.738281 148.5625 159.839844 C 148.640625 159.9375 148.679688 160.050781 148.679688 160.175781 C 148.679688 160.269531 148.65625 160.359375 148.609375 160.445312 C 143.957031 168.8125 138.214844 175.835938 131.546875 181.316406 C 124.859375 186.8125 117.535156 190.492188 109.777344 192.261719 C 109.769531 192.261719 109.761719 192.265625 109.75 192.269531 C 106.316406 193.046875 102.84375 193.4375 99.324219 193.441406 Z M 99.324219 193.441406 " fill-opacity="1" fill-rule="nonzero"/></g><path fill="#ffffff" d="M 158.742188 129.039062 C 158.714844 129.039062 158.6875 129.035156 158.660156 129.03125 C 158.511719 129.007812 158.394531 128.9375 158.304688 128.8125 C 158.214844 128.691406 158.179688 128.558594 158.203125 128.40625 C 158.410156 127.066406 158.59375 125.679688 158.75 124.277344 C 158.765625 124.125 158.832031 124.003906 158.949219 123.910156 C 159.066406 123.816406 159.203125 123.777344 159.351562 123.792969 C 159.5 123.808594 159.621094 123.878906 159.71875 123.996094 C 159.8125 124.113281 159.851562 124.246094 159.832031 124.398438 C 159.675781 125.8125 159.488281 127.21875 159.28125 128.574219 C 159.261719 128.707031 159.199219 128.816406 159.097656 128.90625 C 158.996094 128.992188 158.878906 129.039062 158.742188 129.039062 Z M 158.742188 129.039062 " fill-opacity="1" fill-rule="nonzero"/><path fill="#ffffff" d="M 109.023438 192.28125 C 108.894531 192.277344 108.777344 192.238281 108.679688 192.15625 C 108.578125 192.074219 108.515625 191.972656 108.488281 191.84375 C 108.464844 191.707031 108.488281 191.578125 108.554688 191.453125 C 108.621094 191.332031 108.71875 191.242188 108.84375 191.183594 L 108.851562 191.203125 C 112.328125 189.367188 115.394531 187 118.050781 184.101562 C 118.058594 184.09375 118.066406 184.082031 118.074219 184.074219 C 119.425781 182.585938 120.582031 180.957031 121.542969 179.1875 C 123.808594 174.972656 125.136719 170.351562 126.421875 165.882812 C 127.667969 161.554688 128.957031 157.074219 131.089844 153.113281 C 131.128906 153.035156 131.445312 152.417969 131.445312 152.417969 C 131.464844 152.378906 131.488281 152.339844 131.515625 152.308594 C 131.527344 152.285156 131.539062 152.265625 131.550781 152.242188 C 131.601562 152.125 131.667969 152.019531 131.753906 151.921875 C 131.851562 151.808594 131.976562 151.75 132.128906 151.742188 C 132.277344 151.730469 132.410156 151.777344 132.523438 151.878906 C 132.636719 151.980469 132.695312 152.105469 132.703125 152.253906 C 132.710938 152.40625 132.667969 152.539062 132.566406 152.648438 C 132.554688 152.671875 132.542969 152.691406 132.535156 152.710938 C 132.496094 152.800781 132.445312 152.882812 132.390625 152.960938 C 132.3125 153.113281 132.082031 153.566406 132.046875 153.632812 C 129.972656 157.488281 128.757812 161.714844 127.46875 166.1875 C 126.167969 170.710938 124.820312 175.386719 122.5 179.707031 C 121.503906 181.542969 120.308594 183.234375 118.90625 184.78125 C 118.898438 184.789062 118.890625 184.800781 118.882812 184.808594 C 116.113281 187.839844 112.910156 190.308594 109.277344 192.214844 C 109.195312 192.257812 109.113281 192.28125 109.023438 192.28125 Z M 109.023438 192.28125 " fill-opacity="1" fill-rule="nonzero"/><path fill="#ffffff" d="M 118.078125 185.726562 C 117.855469 185.726562 117.695312 185.628906 117.59375 185.425781 C 117.492188 185.226562 117.507812 185.039062 117.640625 184.855469 C 117.84375 184.578125 118.019531 184.28125 118.167969 183.964844 C 118.171875 183.957031 118.175781 183.949219 118.179688 183.9375 C 118.972656 182.234375 119.015625 179.992188 118.3125 177.269531 C 118.109375 176.488281 117.863281 175.691406 117.625 174.921875 C 117.039062 173.03125 116.433594 171.074219 116.382812 169.035156 C 116.285156 165.175781 118.238281 161.140625 121.738281 157.960938 C 124.128906 155.792969 126.894531 154.230469 129.824219 152.574219 C 130.632812 152.121094 131.464844 151.648438 132.289062 151.164062 C 132.367188 151.117188 132.453125 151.09375 132.546875 151.089844 C 132.640625 151.085938 132.730469 151.105469 132.8125 151.148438 C 132.894531 151.191406 132.964844 151.253906 133.015625 151.332031 C 133.066406 151.40625 133.097656 151.492188 133.105469 151.585938 L 133.125 151.769531 C 133.132812 151.894531 133.144531 152.019531 133.15625 152.144531 L 133.15625 152.152344 C 133.691406 158.152344 134 163.992188 131.933594 169.4375 C 129.53125 175.761719 124.28125 180.414062 119.203125 184.914062 L 118.441406 185.589844 C 118.339844 185.683594 118.21875 185.726562 118.078125 185.726562 Z M 132.09375 152.539062 C 131.511719 152.875 130.925781 153.203125 130.359375 153.527344 C 127.484375 155.148438 124.769531 156.683594 122.46875 158.773438 C 119.207031 161.734375 117.382812 165.464844 117.472656 169.003906 C 117.519531 170.890625 118.078125 172.691406 118.664062 174.59375 C 118.910156 175.375 119.160156 176.183594 119.367188 176.992188 C 119.972656 179.328125 120.058594 181.363281 119.632812 183.070312 C 124.234375 178.96875 128.785156 174.652344 130.910156 169.046875 C 132.867188 163.90625 132.601562 158.304688 132.09375 152.539062 Z M 132.09375 152.539062 " fill-opacity="1" fill-rule="nonzero"/><path fill="#ffffff" d="M 131.199219 181.441406 C 130.921875 181.441406 130.746094 181.304688 130.675781 181.035156 C 130.601562 180.769531 130.683594 180.5625 130.921875 180.421875 C 132.910156 179.246094 135.125 178.085938 137.898438 176.765625 L 138.0625 176.6875 C 138.121094 176.660156 138.179688 176.632812 138.238281 176.605469 C 138.800781 176.339844 139.367188 176.078125 139.933594 175.816406 C 140.882812 175.378906 141.832031 174.945312 142.785156 174.515625 C 144.578125 173.703125 146.429688 172.863281 148.222656 172 C 157.980469 167.300781 162.042969 163.480469 164.492188 160.671875 C 164.589844 160.554688 164.714844 160.488281 164.867188 160.476562 C 165.019531 160.464844 165.152344 160.507812 165.269531 160.609375 C 165.382812 160.710938 165.445312 160.839844 165.453125 160.992188 C 165.464844 161.144531 165.414062 161.277344 165.3125 161.390625 C 160.523438 166.886719 153.917969 170.472656 148.699219 172.984375 C 146.890625 173.855469 145.035156 174.699219 143.238281 175.511719 C 142.289062 175.945312 141.339844 176.375 140.390625 176.8125 C 139.824219 177.070312 139.261719 177.332031 138.703125 177.59375 L 138.535156 177.675781 C 138.476562 177.703125 138.421875 177.730469 138.363281 177.757812 C 135.625 179.058594 133.4375 180.207031 131.480469 181.363281 C 131.394531 181.414062 131.300781 181.441406 131.199219 181.441406 Z M 131.199219 181.441406 " fill-opacity="1" fill-rule="nonzero"/><path fill="#ffffff" d="M 147.007812 179.15625 C 144.503906 179.15625 141.976562 178.625 139.34375 178.070312 C 138.90625 177.980469 138.46875 177.890625 138.023438 177.796875 C 137.804688 177.753906 137.664062 177.621094 137.605469 177.40625 C 137.546875 177.191406 137.597656 177.007812 137.761719 176.855469 C 138.53125 176.179688 139.347656 175.566406 140.207031 175.015625 C 141.316406 174.277344 142.273438 173.636719 143 172.503906 C 143.464844 171.785156 143.894531 171.019531 144.308594 170.277344 C 145.042969 168.871094 145.902344 167.542969 146.890625 166.300781 C 148.8125 164.023438 151.699219 162.285156 155.234375 161.277344 C 158.242188 160.417969 161.242188 160.144531 165.148438 159.859375 C 165.242188 159.851562 165.332031 159.867188 165.417969 159.90625 C 165.503906 159.945312 165.574219 160.003906 165.628906 160.078125 C 165.683594 160.15625 165.71875 160.238281 165.730469 160.332031 C 165.742188 160.425781 165.730469 160.515625 165.695312 160.605469 C 164.195312 164.378906 162.644531 168.277344 160.210938 171.664062 C 157.460938 175.488281 153.890625 178.035156 150.160156 178.835938 C 149.121094 179.054688 148.070312 179.160156 147.007812 179.15625 Z M 139.347656 176.957031 L 139.566406 177 C 143.347656 177.792969 146.609375 178.480469 149.933594 177.765625 C 153.402344 177.023438 156.738281 174.628906 159.328125 171.023438 C 161.511719 167.988281 162.980469 164.46875 164.359375 161.015625 C 160.9375 161.277344 158.21875 161.5625 155.535156 162.328125 C 152.207031 163.277344 149.507812 164.894531 147.722656 167.007812 C 146.78125 168.195312 145.960938 169.464844 145.261719 170.8125 C 144.839844 171.570312 144.402344 172.351562 143.921875 173.097656 C 143.070312 174.417969 141.976562 175.152344 140.816406 175.925781 C 140.335938 176.246094 139.847656 176.574219 139.347656 176.957031 Z M 139.347656 176.957031 " fill-opacity="1" fill-rule="nonzero"/><path fill="#ffffff" d="M 134.496094 178.53125 C 134.265625 178.53125 134.101562 178.429688 134.003906 178.222656 C 133.902344 178.015625 133.925781 177.824219 134.066406 177.644531 L 134.070312 177.640625 C 135.40625 175.804688 136.085938 173.75 136.109375 171.472656 C 136.148438 169.558594 135.738281 167.613281 135.339844 165.730469 C 135.222656 165.1875 135.105469 164.625 135 164.070312 C 134.535156 161.664062 134.214844 158.816406 135.335938 155.976562 C 135.421875 155.765625 135.574219 155.652344 135.796875 155.632812 C 136.023438 155.613281 136.191406 155.699219 136.308594 155.894531 C 137.441406 157.761719 138.242188 159.757812 138.71875 161.890625 C 139.195312 164.023438 139.320312 166.171875 139.089844 168.34375 C 138.90625 170.175781 138.460938 171.941406 137.75 173.636719 C 137.042969 175.335938 136.101562 176.894531 134.933594 178.3125 C 134.902344 178.347656 134.871094 178.382812 134.832031 178.414062 C 134.734375 178.492188 134.621094 178.53125 134.496094 178.53125 Z M 135.980469 157.527344 C 135.421875 159.707031 135.683594 161.847656 136.070312 163.863281 C 136.175781 164.410156 136.292969 164.96875 136.40625 165.503906 C 136.816406 167.449219 137.242188 169.457031 137.199219 171.496094 C 137.195312 171.6875 137.1875 171.875 137.175781 172.066406 C 137.59375 170.816406 137.871094 169.539062 138.007812 168.230469 C 138.203125 166.386719 138.125 164.550781 137.78125 162.730469 C 137.433594 160.90625 136.835938 159.171875 135.980469 157.527344 Z M 135.980469 157.527344 " fill-opacity="1" fill-rule="nonzero"/><path fill="#ffffff" d="M 149.121094 151.652344 C 148.582031 151.652344 148.050781 151.574219 147.53125 151.417969 C 147.015625 151.265625 146.53125 151.039062 146.078125 150.746094 C 145.625 150.449219 145.222656 150.097656 144.871094 149.683594 C 144.519531 149.273438 144.234375 148.820312 144.011719 148.324219 C 143.425781 146.796875 143.417969 145.265625 143.988281 143.734375 C 144.585938 141.992188 145.746094 140.640625 147.175781 140.023438 C 148.820312 139.308594 150.820312 139.703125 151.894531 140.941406 C 153.921875 141.855469 155.136719 144.328125 154.734375 146.757812 C 154.625 147.355469 154.433594 147.925781 154.152344 148.464844 C 153.875 149.003906 153.519531 149.488281 153.09375 149.921875 C 152.664062 150.351562 152.183594 150.710938 151.648438 150.992188 C 151.109375 151.277344 150.542969 151.476562 149.949219 151.585938 C 149.675781 151.628906 149.398438 151.652344 149.121094 151.652344 Z M 148.917969 140.753906 C 148.464844 140.753906 148.027344 140.84375 147.609375 141.027344 C 146.460938 141.523438 145.519531 142.640625 145.019531 144.089844 C 144.539062 145.359375 144.539062 146.632812 145.019531 147.902344 C 145.222656 148.347656 145.492188 148.75 145.824219 149.105469 C 146.160156 149.464844 146.539062 149.757812 146.96875 149.992188 C 147.398438 150.226562 147.851562 150.390625 148.332031 150.476562 C 148.8125 150.5625 149.292969 150.574219 149.777344 150.503906 C 150.261719 150.414062 150.722656 150.253906 151.15625 150.023438 C 151.59375 149.792969 151.984375 149.5 152.328125 149.148438 C 152.675781 148.796875 152.964844 148.402344 153.191406 147.964844 C 153.417969 147.527344 153.574219 147.0625 153.660156 146.578125 C 153.992188 144.589844 153 142.574219 151.351562 141.894531 C 151.265625 141.859375 151.191406 141.804688 151.132812 141.730469 C 150.550781 141.054688 149.8125 140.730469 148.921875 140.753906 Z M 148.917969 140.753906 " fill-opacity="1" fill-rule="nonzero"/><path fill="#ffffff" d="M 145.992188 161.289062 C 143.882812 161.289062 141.316406 160.296875 139.917969 159.324219 C 137.222656 157.449219 136.089844 153.097656 136.71875 150.214844 C 136.957031 148.976562 137.585938 147.988281 138.609375 147.25 C 137.101562 147.113281 135.671875 146.824219 134.980469 146.242188 C 132.402344 144.058594 131.675781 140.003906 133.328125 137.007812 C 134.851562 134.25 136.304688 133.019531 140.898438 133.019531 C 142.507812 133.019531 144.183594 134.179688 145.878906 136.464844 C 146.167969 136.859375 146.433594 137.25 146.671875 137.621094 C 146.585938 135.878906 146.578125 133.691406 147 132.648438 C 147.210938 132.121094 147.472656 131.617188 147.78125 131.136719 C 149.625 128.273438 153.054688 126.65625 156.320312 127.113281 C 157.269531 127.25 158.164062 127.546875 159.003906 128.011719 C 160.074219 128.578125 160.972656 129.351562 161.695312 130.328125 C 162.414062 131.304688 162.890625 132.390625 163.121094 133.585938 C 163.3125 134.847656 163.21875 136.089844 162.847656 137.308594 C 162.472656 138.53125 161.851562 139.609375 160.988281 140.546875 C 160.402344 141.058594 159.757812 141.480469 159.058594 141.820312 C 160.097656 141.953125 161.050781 142.320312 161.914062 142.910156 C 162.496094 143.324219 163.007812 143.804688 163.457031 144.359375 C 163.90625 144.910156 164.273438 145.511719 164.558594 146.167969 C 164.84375 146.820312 165.035156 147.5 165.136719 148.203125 C 165.234375 148.910156 165.242188 149.617188 165.148438 150.320312 C 165.039062 151.019531 164.847656 151.695312 164.574219 152.347656 C 164.296875 153 163.949219 153.605469 163.523438 154.171875 C 163.097656 154.734375 162.609375 155.238281 162.0625 155.683594 C 161.511719 156.128906 160.917969 156.496094 160.277344 156.792969 C 158.050781 157.8125 155.457031 157.769531 153.507812 156.675781 C 152.984375 156.390625 152.503906 156.039062 152.074219 155.625 C 152.023438 155.945312 151.929688 156.253906 151.792969 156.546875 C 150.953125 158.371094 149.765625 159.816406 148.457031 160.617188 C 148.441406 160.628906 148.429688 160.636719 148.414062 160.644531 C 148.222656 160.761719 148.023438 160.863281 147.820312 160.953125 C 147.234375 161.195312 146.625 161.308594 145.992188 161.289062 Z M 141.148438 147.359375 C 139.777344 147.625 138.230469 148.398438 137.785156 150.449219 C 137.171875 153.25 138.460938 156.980469 140.542969 158.425781 C 142.175781 159.5625 145.652344 160.726562 147.378906 159.957031 C 147.53125 159.890625 147.675781 159.8125 147.816406 159.730469 C 147.828125 159.722656 147.839844 159.714844 147.855469 159.707031 C 148.996094 159.019531 150.042969 157.734375 150.804688 156.089844 C 151.0625 155.441406 151.121094 154.777344 150.988281 154.089844 C 150.96875 154.046875 150.949219 154 150.929688 153.957031 C 150.882812 153.824219 150.855469 153.6875 150.851562 153.546875 C 150.847656 153.511719 150.847656 153.472656 150.84375 153.445312 C 150.800781 153.328125 150.769531 153.210938 150.746094 153.089844 C 150.707031 152.925781 150.664062 152.714844 150.617188 152.492188 C 150.59375 152.421875 150.574219 152.351562 150.554688 152.28125 C 150.394531 151.851562 150.304688 151.40625 150.28125 150.945312 C 150.289062 150.808594 150.339844 150.6875 150.4375 150.585938 C 150.53125 150.488281 150.648438 150.433594 150.789062 150.417969 C 151.28125 150.386719 151.367188 150.800781 151.464844 151.246094 C 151.519531 151.484375 151.585938 151.800781 151.652344 152.113281 C 151.660156 152.148438 151.667969 152.1875 151.675781 152.226562 C 151.824219 152.730469 151.945312 153.242188 152.039062 153.761719 C 152.496094 154.625 153.160156 155.28125 154.035156 155.722656 C 155.6875 156.648438 157.902344 156.675781 159.820312 155.800781 C 160.953125 155.277344 161.894531 154.519531 162.648438 153.523438 C 163.398438 152.527344 163.871094 151.410156 164.066406 150.175781 C 164.144531 149.570312 164.140625 148.964844 164.054688 148.359375 C 163.972656 147.753906 163.808594 147.171875 163.5625 146.609375 C 163.320312 146.050781 163.007812 145.535156 162.621094 145.058594 C 162.238281 144.585938 161.796875 144.167969 161.300781 143.816406 C 160.582031 143.316406 159.792969 143.011719 158.925781 142.894531 C 158.0625 142.777344 157.21875 142.867188 156.394531 143.15625 C 155.96875 143.359375 155.539062 143.5625 155.117188 143.761719 C 154.820312 143.902344 154.582031 144.015625 154.417969 144.09375 C 154.289062 144.15625 154.152344 144.167969 154.011719 144.121094 C 153.875 144.078125 153.769531 143.992188 153.699219 143.863281 C 153.628906 143.738281 153.613281 143.601562 153.652344 143.460938 C 153.6875 143.320312 153.769531 143.210938 153.894531 143.136719 C 154.546875 142.722656 155.238281 142.394531 155.972656 142.148438 C 157.578125 141.375 159.730469 140.296875 160.179688 139.804688 C 160.933594 138.996094 161.472656 138.058594 161.800781 137 C 162.125 135.945312 162.207031 134.867188 162.046875 133.773438 C 161.84375 132.742188 161.429688 131.808594 160.804688 130.964844 C 160.179688 130.125 159.40625 129.460938 158.480469 128.96875 C 157.753906 128.570312 156.984375 128.3125 156.164062 128.195312 C 153.359375 127.804688 150.289062 129.257812 148.695312 131.730469 C 148.425781 132.152344 148.195312 132.59375 148.007812 133.058594 C 147.492188 134.34375 147.785156 138.480469 147.941406 139.964844 C 147.953125 140.09375 147.921875 140.21875 147.847656 140.328125 C 147.773438 140.4375 147.671875 140.511719 147.546875 140.546875 C 147.417969 140.582031 147.292969 140.574219 147.171875 140.519531 C 147.050781 140.464844 146.960938 140.375 146.90625 140.253906 C 146.09375 138.546875 143.433594 134.113281 140.894531 134.113281 C 136.851562 134.113281 135.699219 134.964844 134.28125 137.535156 C 132.875 140.09375 133.488281 143.550781 135.683594 145.40625 C 136.425781 146.03125 138.867188 146.246094 141.109375 146.261719 C 141.957031 146.117188 142.804688 146.097656 143.65625 146.203125 C 143.792969 146.226562 143.90625 146.289062 143.996094 146.398438 C 144.085938 146.507812 144.125 146.628906 144.121094 146.769531 C 144.113281 146.910156 144.0625 147.027344 143.964844 147.128906 C 143.867188 147.226562 143.75 147.28125 143.609375 147.292969 C 143.355469 147.308594 142.375 147.363281 141.148438 147.359375 Z M 150.84375 153.449219 C 150.847656 153.457031 150.847656 153.460938 150.851562 153.46875 Z M 164.609375 150.25 Z M 164.609375 150.25 " fill-opacity="1" fill-rule="nonzero"/><path fill="#ffffff" d="M 147.515625 133.402344 C 147.46875 133.402344 147.417969 133.394531 147.371094 133.382812 C 144.222656 132.515625 141.515625 129.957031 140.128906 126.542969 C 138.96875 123.679688 138.699219 120.328125 139.332031 116.574219 C 139.820312 113.671875 140.792969 110.691406 142.492188 106.917969 C 142.542969 106.800781 142.625 106.714844 142.738281 106.65625 C 142.851562 106.597656 142.972656 106.582031 143.09375 106.609375 C 143.21875 106.632812 143.324219 106.695312 143.40625 106.792969 C 143.488281 106.890625 143.53125 107.003906 143.53125 107.128906 C 143.585938 109.253906 144.5 111.503906 146.332031 114.007812 C 146.953125 114.859375 147.636719 115.695312 148.300781 116.5 C 149.324219 117.703125 150.273438 118.957031 151.148438 120.269531 C 152.359375 122.164062 153.699219 125.058594 153.207031 128.09375 C 153.183594 128.242188 153.109375 128.359375 152.988281 128.449219 C 152.867188 128.539062 152.730469 128.570312 152.582031 128.546875 C 152.433594 128.519531 152.3125 128.449219 152.226562 128.324219 C 152.136719 128.203125 152.105469 128.066406 152.128906 127.917969 C 152.566406 125.226562 151.335938 122.59375 150.230469 120.859375 C 149.375 119.585938 148.453125 118.363281 147.457031 117.195312 C 146.785156 116.375 146.089844 115.527344 145.453125 114.652344 C 144.035156 112.714844 143.128906 110.902344 142.710938 109.160156 C 141.648438 111.601562 140.882812 114.136719 140.40625 116.757812 C 139.808594 120.304688 140.054688 123.460938 141.140625 126.132812 C 142.398438 129.234375 144.835938 131.550781 147.660156 132.328125 C 147.792969 132.363281 147.898438 132.441406 147.972656 132.554688 C 148.046875 132.667969 148.074219 132.792969 148.058594 132.929688 C 148.039062 133.0625 147.976562 133.175781 147.875 133.265625 C 147.773438 133.355469 147.652344 133.402344 147.515625 133.402344 Z M 147.515625 133.402344 " fill-opacity="1" fill-rule="nonzero"/><path fill="#ffffff" d="M 159.371094 125.570312 C 159.28125 125.570312 159.195312 125.550781 159.113281 125.507812 C 159.035156 125.464844 158.96875 125.40625 158.917969 125.328125 C 158.867188 125.253906 158.835938 125.167969 158.828125 125.078125 C 158.820312 124.988281 158.832031 124.898438 158.867188 124.816406 C 159.089844 124.28125 159.292969 123.808594 159.488281 123.367188 C 159.492188 123.355469 159.496094 123.347656 159.5 123.339844 C 161.105469 119.746094 163.0625 116.363281 165.375 113.183594 C 165.453125 113.046875 165.570312 112.964844 165.722656 112.933594 C 165.875 112.898438 166.015625 112.925781 166.144531 113.015625 C 166.273438 113.101562 166.351562 113.222656 166.378906 113.375 C 166.402344 113.53125 166.371094 113.671875 166.277344 113.796875 C 164.007812 116.914062 162.085938 120.234375 160.507812 123.757812 C 160.503906 123.765625 160.5 123.773438 160.496094 123.785156 C 160.300781 124.226562 160.097656 124.699219 159.875 125.234375 C 159.78125 125.460938 159.613281 125.574219 159.371094 125.570312 Z M 159.371094 125.570312 " fill-opacity="1" fill-rule="nonzero"/><path fill="#ffffff" d="M 159.40625 125.296875 L 159.375 125.296875 C 159.117188 125.285156 158.953125 125.152344 158.882812 124.90625 C 158.738281 124.402344 158.601562 123.886719 158.480469 123.375 C 158.480469 123.367188 158.476562 123.359375 158.476562 123.351562 C 157.847656 120.703125 157.570312 118.019531 157.644531 115.300781 C 157.71875 112.582031 158.140625 109.914062 158.910156 107.308594 C 159.289062 106.042969 159.746094 104.8125 160.292969 103.613281 C 160.394531 103.382812 160.574219 103.277344 160.824219 103.292969 C 161.078125 103.3125 161.238281 103.441406 161.3125 103.683594 C 163.328125 110.503906 162.84375 117.863281 159.910156 124.960938 C 159.816406 125.1875 159.648438 125.296875 159.40625 125.296875 Z M 160.671875 105.527344 C 160.40625 106.214844 160.167969 106.917969 159.957031 107.621094 C 159.21875 110.117188 158.8125 112.664062 158.734375 115.265625 C 158.660156 117.867188 158.917969 120.4375 159.507812 122.972656 C 161.605469 117.132812 162.003906 111.160156 160.671875 105.527344 Z M 160.671875 105.527344 " fill-opacity="1" fill-rule="nonzero"/><path fill="#ffffff" d="M 159.40625 125.570312 C 159.316406 125.570312 159.234375 125.550781 159.15625 125.511719 C 159.078125 125.472656 159.015625 125.417969 158.960938 125.34375 C 158.910156 125.273438 158.878906 125.195312 158.867188 125.109375 C 158.851562 125.019531 158.859375 124.9375 158.886719 124.851562 C 159.84375 121.972656 162.34375 119.472656 165.742188 117.992188 C 168.023438 117 170.421875 116.523438 172.957031 116.015625 C 173.710938 115.867188 174.488281 115.710938 175.257812 115.542969 C 175.476562 115.496094 175.65625 115.558594 175.796875 115.730469 C 175.941406 115.90625 175.964844 116.09375 175.875 116.300781 C 175.496094 117.144531 175.019531 117.929688 174.449219 118.660156 C 173.878906 119.386719 173.230469 120.035156 172.503906 120.609375 C 171.777344 121.179688 170.992188 121.65625 170.152344 122.035156 C 169.308594 122.414062 168.433594 122.6875 167.527344 122.855469 C 166.941406 122.960938 166.339844 123.019531 165.761719 123.078125 C 163.820312 123.265625 161.8125 123.460938 159.78125 125.417969 C 159.679688 125.519531 159.550781 125.570312 159.40625 125.570312 Z M 174.367188 116.847656 C 173.964844 116.933594 173.5625 117.011719 173.171875 117.089844 C 170.695312 117.582031 168.355469 118.046875 166.179688 118.992188 C 164.003906 119.886719 162.238281 121.296875 160.890625 123.226562 C 162.554688 122.289062 164.175781 122.132812 165.65625 121.988281 C 166.238281 121.929688 166.789062 121.875 167.335938 121.78125 C 168.804688 121.496094 170.148438 120.925781 171.375 120.066406 C 172.601562 119.207031 173.597656 118.136719 174.367188 116.847656 Z M 174.367188 116.847656 " fill-opacity="1" fill-rule="nonzero"/><path fill="#ffffff" d="M 173.75 109.042969 C 173.3125 109.050781 172.882812 108.996094 172.460938 108.886719 C 172.039062 108.773438 171.640625 108.605469 171.265625 108.382812 C 170.890625 108.160156 170.550781 107.890625 170.25 107.574219 C 169.949219 107.253906 169.695312 106.902344 169.492188 106.515625 C 169.289062 106.128906 169.144531 105.71875 169.054688 105.292969 C 168.964844 104.863281 168.933594 104.429688 168.964844 103.996094 C 168.992188 103.558594 169.082031 103.132812 169.230469 102.722656 C 169.378906 102.308594 169.578125 101.925781 169.832031 101.570312 C 170.535156 100.566406 171.492188 99.960938 172.699219 99.753906 C 173.257812 99.667969 173.808594 99.699219 174.355469 99.851562 C 174.902344 100 175.390625 100.257812 175.828125 100.621094 C 176.460938 100.726562 176.984375 101.023438 177.390625 101.519531 C 178.15625 102.445312 178.488281 103.507812 178.386719 104.703125 C 178.335938 105.1875 178.21875 105.652344 178.03125 106.101562 C 177.84375 106.546875 177.59375 106.957031 177.285156 107.332031 C 176.972656 107.703125 176.617188 108.023438 176.210938 108.289062 C 175.804688 108.554688 175.371094 108.753906 174.90625 108.890625 C 174.527344 108.992188 174.140625 109.042969 173.75 109.042969 Z M 173.308594 100.800781 C 173.160156 100.800781 173.015625 100.8125 172.867188 100.835938 C 171.964844 101 171.25 101.453125 170.722656 102.203125 C 170.558594 102.433594 170.425781 102.675781 170.316406 102.9375 C 170.210938 103.195312 170.136719 103.464844 170.089844 103.738281 C 170.046875 104.015625 170.035156 104.296875 170.054688 104.574219 C 170.074219 104.855469 170.125 105.128906 170.207031 105.394531 C 170.289062 105.664062 170.402344 105.917969 170.542969 106.160156 C 170.683594 106.402344 170.851562 106.625 171.046875 106.828125 C 171.238281 107.03125 171.453125 107.210938 171.683594 107.363281 C 171.917969 107.519531 172.167969 107.644531 172.429688 107.738281 C 172.691406 107.835938 172.964844 107.902344 173.242188 107.933594 C 173.519531 107.96875 173.796875 107.96875 174.074219 107.9375 C 174.351562 107.910156 174.625 107.847656 174.886719 107.753906 C 175.152344 107.660156 175.402344 107.539062 175.636719 107.386719 C 175.871094 107.234375 176.089844 107.058594 176.28125 106.859375 C 176.476562 106.65625 176.648438 106.4375 176.792969 106.195312 C 176.9375 105.953125 177.050781 105.699219 177.136719 105.433594 C 177.222656 105.167969 177.277344 104.894531 177.296875 104.613281 C 177.378906 103.726562 177.136719 102.933594 176.574219 102.242188 C 176.316406 101.917969 175.980469 101.738281 175.570312 101.695312 C 175.433594 101.6875 175.316406 101.636719 175.214844 101.542969 C 174.679688 101.042969 174.042969 100.792969 173.308594 100.800781 Z M 173.308594 100.800781 " fill-opacity="1" fill-rule="nonzero"/><path fill="#ffffff" d="M 176.9375 102.378906 C 176.808594 102.378906 176.691406 102.339844 176.589844 102.253906 C 176.488281 102.171875 176.425781 102.066406 176.402344 101.9375 C 176.378906 101.808594 176.394531 101.6875 176.457031 101.570312 C 176.519531 101.457031 176.613281 101.375 176.734375 101.324219 C 177.335938 101.082031 177.910156 100.78125 178.445312 100.414062 C 180.964844 98.707031 182.394531 95.925781 182.175781 93.152344 C 182.070312 91.804688 181.59375 90.679688 180.832031 89.980469 C 179.574219 88.835938 177.359375 88.828125 175.785156 89.960938 C 174.394531 90.96875 173.441406 92.773438 173.164062 94.917969 C 173.035156 96.0625 173.03125 97.210938 173.160156 98.355469 C 173.210938 98.90625 173.285156 99.496094 173.386719 100.207031 C 173.40625 100.355469 173.371094 100.492188 173.28125 100.609375 C 173.191406 100.730469 173.070312 100.800781 172.921875 100.824219 C 172.773438 100.84375 172.640625 100.808594 172.519531 100.71875 C 172.398438 100.628906 172.328125 100.511719 172.304688 100.363281 C 172.203125 99.632812 172.128906 99.027344 172.070312 98.457031 C 171.9375 97.230469 171.941406 96.003906 172.082031 94.777344 C 172.398438 92.335938 173.511719 90.257812 175.148438 89.074219 C 177.15625 87.621094 179.914062 87.664062 181.566406 89.171875 C 182.53125 90.054688 183.136719 91.4375 183.265625 93.0625 C 183.515625 96.230469 181.902344 99.394531 179.058594 101.320312 C 178.453125 101.726562 177.816406 102.066406 177.140625 102.339844 C 177.074219 102.367188 177.007812 102.378906 176.9375 102.378906 Z M 176.9375 102.378906 " fill-opacity="1" fill-rule="nonzero"/><path fill="#ffffff" d="M 169.832031 115.785156 C 169.128906 115.792969 168.441406 115.6875 167.773438 115.464844 C 166.835938 115.140625 166.050781 114.59375 165.417969 113.828125 C 165.410156 113.816406 165.402344 113.804688 165.394531 113.796875 C 164.910156 113.230469 164.558594 112.589844 164.332031 111.882812 C 164.109375 111.171875 164.03125 110.445312 164.097656 109.703125 C 164.195312 108.820312 164.503906 108.011719 165.011719 107.277344 C 165.523438 106.546875 166.175781 105.984375 166.972656 105.585938 C 165.96875 105.300781 165.027344 104.871094 164.152344 104.292969 C 163.351562 103.773438 162.667969 103.128906 162.109375 102.351562 C 161.550781 101.578125 161.148438 100.726562 160.910156 99.800781 C 160.675781 98.84375 160.683594 97.882812 160.933594 96.929688 C 161.1875 95.972656 161.648438 95.132812 162.324219 94.414062 C 164.210938 92.519531 167.617188 92.355469 170.082031 94.042969 C 171.585938 95.089844 172.605469 96.488281 173.136719 98.246094 C 173.335938 98.894531 173.457031 99.5625 173.492188 100.242188 C 173.5 100.390625 173.453125 100.523438 173.355469 100.636719 C 173.253906 100.75 173.128906 100.808594 172.976562 100.816406 C 172.828125 100.824219 172.695312 100.777344 172.582031 100.679688 C 172.472656 100.578125 172.410156 100.453125 172.402344 100.300781 C 172.371094 99.710938 172.269531 99.132812 172.09375 98.566406 C 171.636719 97.054688 170.761719 95.847656 169.464844 94.945312 C 167.183594 93.382812 164.433594 93.84375 163.09375 95.1875 C 162.550781 95.773438 162.179688 96.453125 161.980469 97.226562 C 161.78125 98 161.777344 98.777344 161.972656 99.554688 C 162.179688 100.34375 162.523438 101.070312 163.007812 101.730469 C 163.488281 102.390625 164.070312 102.941406 164.757812 103.382812 C 166.1875 104.296875 167.75 104.816406 169.441406 104.945312 C 169.582031 104.960938 169.699219 105.023438 169.792969 105.128906 C 169.890625 105.234375 169.933594 105.359375 169.929688 105.503906 C 169.929688 105.644531 169.878906 105.769531 169.777344 105.871094 C 169.679688 105.972656 169.558594 106.027344 169.417969 106.035156 C 167.179688 106.164062 165.398438 107.753906 165.183594 109.820312 C 165.128906 110.417969 165.195312 111.003906 165.382812 111.578125 C 165.566406 112.152344 165.859375 112.664062 166.25 113.121094 C 166.261719 113.128906 166.269531 113.140625 166.277344 113.148438 C 166.773438 113.746094 167.390625 114.175781 168.125 114.429688 C 169.140625 114.78125 170.382812 114.78125 171.921875 114.433594 C 172.6875 114.261719 173.65625 113.980469 174.304688 113.34375 C 174.945312 112.664062 175.265625 111.851562 175.257812 110.914062 C 175.253906 110.035156 175.089844 109.191406 174.757812 108.375 C 174.707031 108.234375 174.710938 108.09375 174.773438 107.957031 C 174.839844 107.820312 174.941406 107.726562 175.082031 107.671875 C 175.222656 107.621094 175.359375 107.625 175.496094 107.6875 C 175.632812 107.75 175.730469 107.851562 175.78125 107.992188 C 176.160156 108.941406 176.351562 109.921875 176.351562 110.941406 C 176.347656 112.175781 175.921875 113.238281 175.066406 114.128906 C 174.21875 114.957031 173.070312 115.296875 172.160156 115.5 C 171.394531 115.683594 170.617188 115.777344 169.832031 115.785156 Z M 169.832031 115.785156 " fill-opacity="1" fill-rule="nonzero"/><g clip-path="url(#4a68b7efbc)"><path fill="#ffffff" d="M 179.613281 111.441406 C 177.707031 111.441406 176.039062 110.417969 174.847656 108.449219 C 174.773438 108.320312 174.753906 108.183594 174.792969 108.039062 C 174.828125 107.898438 174.910156 107.785156 175.039062 107.707031 C 175.164062 107.632812 175.300781 107.609375 175.445312 107.644531 C 175.589844 107.675781 175.703125 107.757812 175.78125 107.882812 C 176.757812 109.492188 178.554688 111.160156 181.574219 109.933594 C 183.820312 109.023438 185.289062 106.726562 185.070312 104.472656 C 185.03125 103.90625 184.878906 103.375 184.617188 102.871094 C 184.351562 102.367188 183.996094 101.941406 183.554688 101.585938 C 183.058594 101.265625 182.515625 101.054688 181.933594 100.953125 C 181.347656 100.851562 180.769531 100.871094 180.195312 101.011719 C 179.769531 101.097656 179.351562 101.21875 178.949219 101.378906 C 178.328125 101.625 177.726562 101.914062 177.148438 102.25 C 177.015625 102.320312 176.878906 102.332031 176.738281 102.292969 C 176.59375 102.25 176.488281 102.164062 176.414062 102.03125 C 176.34375 101.902344 176.324219 101.765625 176.363281 101.621094 C 176.402344 101.480469 176.488281 101.371094 176.617188 101.292969 C 177.242188 100.933594 177.886719 100.621094 178.558594 100.359375 C 179.019531 100.175781 179.496094 100.035156 179.980469 99.9375 C 181.5625 99.625 183.097656 99.90625 184.195312 100.703125 C 184.769531 101.144531 185.226562 101.683594 185.566406 102.324219 C 185.910156 102.964844 186.105469 103.644531 186.15625 104.367188 C 186.421875 107.09375 184.667969 109.859375 181.984375 110.949219 C 181.226562 111.265625 180.433594 111.433594 179.613281 111.441406 Z M 179.613281 111.441406 " fill-opacity="1" fill-rule="nonzero"/></g><path fill="#ffffff" d="M 153.757812 107.5 C 153.6875 107.5 153.617188 107.484375 153.550781 107.457031 C 153.457031 107.417969 153.363281 107.378906 153.265625 107.335938 C 152.570312 107.039062 151.890625 106.707031 151.226562 106.347656 C 150.5625 105.988281 149.914062 105.597656 149.289062 105.175781 C 148.660156 104.753906 148.050781 104.304688 147.464844 103.828125 C 146.878906 103.351562 146.3125 102.84375 145.773438 102.316406 C 145.234375 101.785156 144.71875 101.230469 144.230469 100.652344 C 143.742188 100.074219 143.28125 99.472656 142.851562 98.851562 C 142.417969 98.230469 142.015625 97.589844 141.640625 96.933594 C 141.269531 96.273438 140.925781 95.597656 140.617188 94.90625 C 140.304688 94.21875 140.027344 93.511719 139.78125 92.796875 C 139.535156 92.078125 139.324219 91.351562 139.148438 90.617188 C 138.96875 89.878906 138.828125 89.136719 138.71875 88.386719 C 138.609375 87.636719 138.535156 86.882812 138.496094 86.128906 C 138.460938 85.371094 138.457031 84.613281 138.488281 83.855469 C 138.519531 83.097656 138.585938 82.34375 138.6875 81.59375 C 138.789062 80.84375 138.925781 80.097656 139.097656 79.363281 C 139.269531 78.625 139.472656 77.894531 139.710938 77.175781 C 139.757812 77.03125 139.851562 76.925781 139.984375 76.859375 C 140.121094 76.792969 140.257812 76.78125 140.402344 76.828125 C 140.542969 76.878906 140.648438 76.96875 140.71875 77.101562 C 140.785156 77.238281 140.792969 77.378906 140.746094 77.519531 C 140.519531 78.207031 140.324219 78.902344 140.160156 79.609375 C 139.996094 80.316406 139.867188 81.027344 139.769531 81.742188 C 139.671875 82.460938 139.609375 83.179688 139.578125 83.90625 C 139.546875 84.628906 139.550781 85.351562 139.589844 86.074219 C 139.625 86.796875 139.695312 87.515625 139.800781 88.234375 C 139.902344 88.949219 140.039062 89.660156 140.210938 90.363281 C 140.378906 91.066406 140.582031 91.761719 140.816406 92.445312 C 141.050781 93.132812 141.316406 93.804688 141.613281 94.464844 C 141.910156 95.125 142.238281 95.769531 142.59375 96.398438 C 142.949219 97.027344 143.335938 97.640625 143.75 98.234375 C 144.164062 98.828125 144.601562 99.398438 145.070312 99.953125 C 145.535156 100.503906 146.027344 101.035156 146.542969 101.539062 C 147.0625 102.046875 147.597656 102.527344 148.160156 102.984375 C 148.722656 103.441406 149.300781 103.871094 149.902344 104.273438 C 150.503906 104.675781 151.121094 105.046875 151.757812 105.390625 C 152.390625 105.738281 153.042969 106.050781 153.707031 106.335938 C 153.800781 106.378906 153.882812 106.410156 153.964844 106.445312 C 154.085938 106.496094 154.179688 106.578125 154.238281 106.691406 C 154.300781 106.808594 154.320312 106.929688 154.292969 107.058594 C 154.269531 107.1875 154.207031 107.292969 154.105469 107.375 C 154.003906 107.457031 153.886719 107.5 153.757812 107.5 Z M 153.757812 107.5 " fill-opacity="1" fill-rule="nonzero"/><path fill="#ffffff" d="M 158.261719 118.90625 C 158.132812 118.90625 158.019531 118.867188 157.921875 118.789062 C 157.824219 118.707031 157.757812 118.605469 157.730469 118.484375 C 156.746094 115.046875 155.246094 111.425781 153.007812 107.089844 C 151.996094 105.128906 150.925781 103.203125 150.105469 101.742188 L 149.453125 100.578125 C 145.414062 93.398438 141.234375 85.972656 139.859375 77.585938 C 139.832031 77.4375 139.867188 77.300781 139.953125 77.179688 C 140.042969 77.054688 140.160156 76.980469 140.308594 76.957031 C 140.457031 76.933594 140.589844 76.964844 140.714844 77.054688 C 140.835938 77.140625 140.910156 77.257812 140.933594 77.40625 C 142.28125 85.601562 146.410156 92.941406 150.402344 100.039062 L 151.058594 101.207031 C 151.882812 102.671875 152.957031 104.609375 153.976562 106.585938 C 156.253906 111 157.785156 114.691406 158.785156 118.207031 C 158.808594 118.289062 158.8125 118.375 158.796875 118.457031 C 158.78125 118.542969 158.75 118.617188 158.699219 118.6875 C 158.644531 118.753906 158.582031 118.808594 158.503906 118.847656 C 158.429688 118.886719 158.347656 118.90625 158.261719 118.90625 Z M 158.261719 118.90625 " fill-opacity="1" fill-rule="nonzero"/><path fill="#ffffff" d="M 153.761719 107.878906 C 153.730469 107.878906 153.699219 107.878906 153.671875 107.871094 C 153.523438 107.847656 153.402344 107.773438 153.316406 107.648438 C 153.230469 107.527344 153.199219 107.390625 153.222656 107.242188 C 153.707031 104.417969 154.203125 101.496094 153.957031 98.621094 C 153.628906 94.757812 151.894531 90.695312 148.941406 86.867188 C 146.46875 83.664062 143.570312 81.023438 140.035156 77.90625 C 139.984375 77.859375 139.925781 77.808594 139.867188 77.757812 C 139.757812 77.65625 139.699219 77.53125 139.691406 77.382812 C 139.683594 77.230469 139.730469 77.101562 139.828125 76.988281 C 139.925781 76.878906 140.050781 76.816406 140.199219 76.808594 C 140.347656 76.796875 140.480469 76.84375 140.59375 76.941406 C 140.644531 76.988281 140.695312 77.035156 140.75 77.078125 C 143.570312 79.566406 147.070312 82.65625 149.800781 86.195312 C 152.886719 90.191406 154.699219 94.457031 155.046875 98.527344 C 155.300781 101.542969 154.792969 104.535156 154.300781 107.425781 C 154.277344 107.558594 154.214844 107.664062 154.113281 107.75 C 154.011719 107.835938 153.894531 107.878906 153.761719 107.878906 Z M 153.761719 107.878906 " fill-opacity="1" fill-rule="nonzero"/><path fill="#ffffff" d="M 159.074219 99.960938 C 158.929688 99.960938 158.808594 99.910156 158.703125 99.8125 C 158.597656 99.714844 158.539062 99.59375 158.53125 99.449219 C 158.269531 95.703125 158.503906 92.46875 159.261719 89.472656 C 159.242188 89.4375 159.226562 89.398438 159.214844 89.359375 C 156.164062 79.753906 158.613281 68.847656 165.449219 61.574219 C 165.632812 61.382812 165.839844 61.339844 166.082031 61.453125 C 166.320312 61.566406 166.421875 61.757812 166.386719 62.019531 C 166.394531 62.050781 166.398438 62.082031 166.402344 62.113281 C 166.542969 64.40625 166.835938 66.679688 167.277344 68.9375 C 167.464844 70.007812 167.65625 71.113281 167.8125 72.210938 C 168.234375 75.15625 168.558594 79.003906 167.316406 82.613281 C 166.109375 86.125 163.414062 88.8125 160.351562 89.617188 C 159.597656 92.535156 159.363281 95.695312 159.617188 99.375 C 159.628906 99.527344 159.585938 99.660156 159.488281 99.773438 C 159.386719 99.886719 159.261719 99.949219 159.113281 99.960938 C 159.097656 99.960938 159.085938 99.960938 159.074219 99.960938 Z M 165.5 64.535156 C 164.976562 66.636719 164.964844 68.828125 164.953125 70.96875 C 164.972656 72.453125 164.90625 73.933594 164.765625 75.414062 C 164.382812 78.707031 163.175781 81.832031 162.003906 84.855469 C 161.679688 85.691406 161.347656 86.558594 161.039062 87.410156 C 160.921875 87.722656 160.816406 88.039062 160.714844 88.355469 C 163.160156 87.460938 165.28125 85.171875 166.285156 82.257812 C 167.449219 78.871094 167.136719 75.191406 166.730469 72.367188 C 166.578125 71.285156 166.386719 70.1875 166.203125 69.125 C 165.941406 67.621094 165.675781 66.085938 165.5 64.535156 Z M 164.367188 64.566406 C 163.167969 66.195312 162.160156 67.9375 161.347656 69.789062 C 160.53125 71.644531 159.925781 73.5625 159.535156 75.550781 C 159.144531 77.535156 158.972656 79.542969 159.023438 81.566406 C 159.074219 83.589844 159.34375 85.585938 159.832031 87.550781 C 159.890625 87.375 159.949219 87.203125 160.011719 87.035156 C 160.328125 86.171875 160.664062 85.300781 160.988281 84.460938 C 162.132812 81.5 163.316406 78.441406 163.679688 75.285156 C 163.820312 73.847656 163.878906 72.40625 163.859375 70.960938 C 163.875 68.847656 163.886719 66.6875 164.367188 64.566406 Z M 164.367188 64.566406 " fill-opacity="1" fill-rule="nonzero"/><path fill="#ffffff" d="M 154.902344 80.398438 C 154.726562 80.398438 154.582031 80.328125 154.472656 80.1875 C 154.390625 80.082031 154.308594 79.976562 154.222656 79.875 C 154.207031 79.859375 154.195312 79.839844 154.179688 79.820312 C 152.582031 77.855469 150.664062 76.144531 148.636719 74.335938 C 145.601562 71.625 142.464844 68.820312 140.503906 65.109375 C 138.320312 60.988281 137.898438 56.210938 137.769531 52.511719 C 137.75 51.96875 137.738281 51.425781 137.730469 50.882812 C 137.714844 50.167969 137.707031 49.453125 137.699219 48.738281 C 137.675781 46.429688 137.652344 44.042969 137.425781 41.730469 C 137.402344 41.503906 137.378906 41.28125 137.351562 41.058594 C 137.308594 40.679688 137.253906 40.28125 137.191406 39.839844 C 137.167969 39.703125 137.195312 39.574219 137.273438 39.457031 C 137.351562 39.339844 137.457031 39.261719 137.589844 39.226562 C 137.726562 39.191406 137.855469 39.207031 137.980469 39.269531 C 138.105469 39.335938 138.191406 39.433594 138.238281 39.5625 C 139.597656 43.160156 142.410156 45.777344 145.386719 48.542969 C 147.367188 50.382812 149.414062 52.285156 150.996094 54.507812 C 153.316406 57.769531 154.789062 61.921875 155.367188 66.847656 C 155.882812 71.210938 155.664062 75.617188 155.449219 79.878906 C 155.441406 80.027344 155.386719 80.148438 155.28125 80.25 C 155.175781 80.351562 155.050781 80.398438 154.902344 80.398438 Z M 138.601562 42.691406 C 138.75 44.707031 138.773438 46.746094 138.792969 48.726562 C 138.800781 49.4375 138.808594 50.152344 138.820312 50.863281 C 138.832031 51.402344 138.84375 51.9375 138.859375 52.472656 C 138.984375 56.054688 139.390625 60.671875 141.464844 64.59375 C 143.339844 68.136719 146.402344 70.871094 149.363281 73.519531 C 151.152344 75.050781 152.839844 76.683594 154.429688 78.421875 C 154.609375 74.644531 154.734375 70.777344 154.285156 66.972656 C 153.726562 62.230469 152.320312 58.25 150.105469 55.140625 C 148.589844 53.011719 146.582031 51.148438 144.644531 49.34375 C 142.453125 47.304688 140.203125 45.214844 138.601562 42.691406 Z M 138.601562 42.691406 " fill-opacity="1" fill-rule="nonzero"/><path fill="#ffffff" d="M 154.65625 80.21875 C 154.523438 80.21875 154.40625 80.175781 154.304688 80.089844 C 154.203125 80.007812 154.140625 79.898438 154.117188 79.769531 L 154.089844 79.609375 C 154.089844 79.601562 154.089844 79.597656 154.085938 79.59375 C 152.945312 72.902344 151.65625 65.316406 147.765625 59.125 C 146.617188 57.371094 145.371094 55.683594 144.03125 54.070312 C 143.097656 52.902344 142.128906 51.6875 141.246094 50.441406 C 139.046875 47.328125 137.796875 44.484375 137.425781 41.746094 C 137.390625 41.46875 137.363281 41.242188 137.351562 41.03125 C 137.324219 40.738281 137.3125 40.429688 137.308594 40.113281 C 137.308594 39.960938 137.359375 39.832031 137.46875 39.722656 C 137.574219 39.613281 137.703125 39.5625 137.851562 39.558594 L 137.855469 39.558594 C 138.003906 39.558594 138.132812 39.613281 138.242188 39.71875 C 138.347656 39.824219 138.402344 39.953125 138.402344 40.101562 C 138.402344 40.390625 138.414062 40.675781 138.4375 40.949219 C 138.453125 41.144531 138.472656 41.347656 138.507812 41.601562 C 138.851562 44.15625 140.039062 46.84375 142.136719 49.808594 C 143.003906 51.03125 143.960938 52.226562 144.886719 53.386719 C 146.25 55.03125 147.519531 56.75 148.6875 58.539062 C 152.691406 64.910156 154.003906 72.601562 155.160156 79.390625 C 155.164062 79.402344 155.164062 79.417969 155.167969 79.429688 L 155.191406 79.570312 C 155.21875 79.71875 155.191406 79.855469 155.105469 79.980469 C 155.019531 80.105469 154.902344 80.179688 154.753906 80.207031 C 154.722656 80.214844 154.6875 80.21875 154.65625 80.21875 Z M 154.65625 80.21875 " fill-opacity="1" fill-rule="nonzero"/><path fill="#ffffff" d="M 149.046875 130.804688 L 149.023438 130.804688 C 148.871094 130.800781 148.746094 130.742188 148.644531 130.628906 C 148.542969 130.519531 148.496094 130.386719 148.5 130.238281 C 148.640625 126.738281 147.046875 123.386719 145.5 120.148438 L 145.164062 119.4375 C 143.539062 116.011719 142.105469 112.335938 142.640625 108.683594 C 142.664062 108.53125 142.734375 108.414062 142.855469 108.324219 C 142.976562 108.234375 143.113281 108.199219 143.261719 108.222656 C 143.410156 108.242188 143.53125 108.3125 143.621094 108.4375 C 143.710938 108.558594 143.742188 108.691406 143.722656 108.839844 C 143.226562 112.203125 144.597656 115.695312 146.148438 118.96875 L 146.484375 119.675781 C 148.085938 123.035156 149.742188 126.511719 149.589844 130.28125 C 149.585938 130.425781 149.527344 130.550781 149.421875 130.652344 C 149.316406 130.753906 149.191406 130.804688 149.046875 130.804688 Z M 149.046875 130.804688 " fill-opacity="1" fill-rule="nonzero"/><path fill="#ffffff" d="M 149.835938 140.691406 C 149.785156 140.691406 149.734375 140.683594 149.6875 140.667969 C 149.542969 140.628906 149.433594 140.539062 149.359375 140.410156 C 149.285156 140.277344 149.269531 140.136719 149.3125 139.992188 L 149.964844 137.695312 C 150.007812 137.550781 150.09375 137.441406 150.226562 137.367188 C 150.359375 137.296875 150.496094 137.277344 150.640625 137.320312 C 150.785156 137.363281 150.894531 137.449219 150.96875 137.582031 C 151.039062 137.714844 151.058594 137.851562 151.015625 137.996094 L 150.359375 140.292969 C 150.285156 140.558594 150.109375 140.691406 149.835938 140.691406 Z M 149.835938 140.691406 " fill-opacity="1" fill-rule="nonzero"/><path fill="#ffffff" d="M 152.375 141.675781 C 152.28125 141.675781 152.195312 141.652344 152.113281 141.609375 C 152.03125 141.566406 151.96875 141.503906 151.917969 141.425781 C 151.867188 141.351562 151.835938 141.265625 151.828125 141.171875 C 151.820312 141.082031 151.835938 140.992188 151.875 140.910156 C 152.285156 139.96875 152.878906 139.167969 153.65625 138.496094 C 153.769531 138.398438 153.902344 138.355469 154.054688 138.367188 C 154.203125 138.378906 154.328125 138.441406 154.425781 138.554688 C 154.523438 138.671875 154.566406 138.804688 154.554688 138.953125 C 154.542969 139.105469 154.480469 139.230469 154.367188 139.328125 C 153.71875 139.886719 153.21875 140.5625 152.875 141.347656 C 152.78125 141.566406 152.613281 141.675781 152.375 141.675781 Z M 152.375 141.675781 " fill-opacity="1" fill-rule="nonzero"/><path fill="#ffffff" d="M 158.101562 146.640625 C 158.015625 146.640625 157.933594 146.621094 157.855469 146.578125 C 156.792969 146.035156 155.671875 145.835938 154.488281 145.980469 C 154.335938 145.996094 154.203125 145.960938 154.085938 145.867188 C 153.964844 145.773438 153.898438 145.652344 153.878906 145.503906 C 153.859375 145.355469 153.898438 145.21875 153.988281 145.101562 C 154.082031 144.980469 154.203125 144.914062 154.351562 144.894531 C 155.757812 144.722656 157.089844 144.960938 158.351562 145.605469 C 158.464844 145.664062 158.546875 145.75 158.597656 145.863281 C 158.652344 145.980469 158.664062 146.097656 158.632812 146.222656 C 158.605469 146.34375 158.539062 146.445312 158.441406 146.523438 C 158.339844 146.601562 158.230469 146.640625 158.101562 146.640625 Z M 158.101562 146.640625 " fill-opacity="1" fill-rule="nonzero"/><path fill="#ffffff" d="M 156.515625 149.832031 C 156.3125 149.832031 156.15625 149.746094 156.050781 149.570312 C 155.535156 148.734375 154.8125 148.164062 153.878906 147.855469 C 153.742188 147.804688 153.644531 147.714844 153.582031 147.582031 C 153.519531 147.453125 153.507812 147.316406 153.554688 147.179688 C 153.597656 147.039062 153.683594 146.9375 153.8125 146.867188 C 153.9375 146.796875 154.074219 146.78125 154.214844 146.816406 C 155.402344 147.207031 156.324219 147.9375 156.980469 149 C 157.09375 149.183594 157.097656 149.367188 156.992188 149.554688 C 156.886719 149.742188 156.730469 149.832031 156.515625 149.832031 Z M 156.515625 149.832031 " fill-opacity="1" fill-rule="nonzero"/><path fill="#ffffff" d="M 145.097656 142.152344 C 144.988281 142.152344 144.890625 142.125 144.800781 142.066406 L 142.964844 140.871094 C 142.835938 140.789062 142.757812 140.671875 142.726562 140.523438 C 142.695312 140.375 142.71875 140.238281 142.800781 140.113281 C 142.882812 139.984375 143 139.90625 143.144531 139.875 C 143.292969 139.84375 143.429688 139.867188 143.558594 139.953125 L 145.394531 141.148438 C 145.625 141.296875 145.699219 141.5 145.621094 141.761719 C 145.546875 142.027344 145.371094 142.15625 145.097656 142.15625 Z M 145.097656 142.152344 " fill-opacity="1" fill-rule="nonzero"/><path fill="#ffffff" d="M 144.347656 144.148438 C 144.289062 144.148438 144.230469 144.136719 144.175781 144.121094 C 143.292969 143.828125 142.394531 143.738281 141.472656 143.859375 C 141.320312 143.882812 141.183594 143.847656 141.0625 143.757812 C 140.9375 143.664062 140.867188 143.542969 140.847656 143.390625 C 140.828125 143.238281 140.867188 143.101562 140.960938 142.980469 C 141.054688 142.859375 141.179688 142.789062 141.332031 142.773438 C 142.417969 142.632812 143.480469 142.738281 144.519531 143.082031 C 144.648438 143.125 144.746094 143.203125 144.8125 143.316406 C 144.882812 143.433594 144.90625 143.554688 144.886719 143.6875 C 144.863281 143.820312 144.804688 143.929688 144.703125 144.015625 C 144.601562 144.105469 144.480469 144.148438 144.347656 144.148438 Z M 144.347656 144.148438 " fill-opacity="1" fill-rule="nonzero"/><path fill="#ffffff" d="M 143.261719 151.582031 C 143.035156 151.582031 142.871094 151.480469 142.773438 151.277344 C 142.671875 151.074219 142.691406 150.882812 142.828125 150.703125 C 143.371094 149.988281 144.058594 149.464844 144.886719 149.125 C 145.027344 149.066406 145.164062 149.066406 145.304688 149.125 C 145.441406 149.183594 145.539062 149.285156 145.597656 149.425781 C 145.652344 149.5625 145.652344 149.703125 145.59375 149.84375 C 145.539062 149.980469 145.4375 150.078125 145.300781 150.136719 C 144.652344 150.402344 144.117188 150.8125 143.695312 151.367188 C 143.585938 151.511719 143.441406 151.582031 143.261719 151.582031 Z M 143.261719 151.582031 " fill-opacity="1" fill-rule="nonzero"/><path fill="#ffffff" d="M 145.289062 154.144531 C 145.199219 154.144531 145.113281 154.121094 145.03125 154.078125 C 144.953125 154.039062 144.886719 153.976562 144.835938 153.902344 C 144.785156 153.828125 144.753906 153.746094 144.746094 153.65625 C 144.734375 153.566406 144.75 153.476562 144.78125 153.394531 C 145.203125 152.347656 145.800781 151.414062 146.578125 150.597656 C 146.683594 150.488281 146.8125 150.433594 146.960938 150.429688 C 147.113281 150.425781 147.242188 150.476562 147.351562 150.582031 C 147.460938 150.683594 147.515625 150.8125 147.519531 150.964844 C 147.523438 151.113281 147.472656 151.246094 147.367188 151.355469 C 146.6875 152.070312 146.164062 152.882812 145.792969 153.800781 C 145.703125 154.03125 145.535156 154.144531 145.289062 154.144531 Z M 145.289062 154.144531 " fill-opacity="1" fill-rule="nonzero"/><path fill="#ffffff" d="M 148.609375 154.679688 C 148.460938 154.679688 148.335938 154.625 148.230469 154.523438 C 148.121094 154.421875 148.066406 154.296875 148.0625 154.148438 L 147.980469 151.523438 C 147.976562 151.371094 148.027344 151.242188 148.128906 151.132812 C 148.230469 151.023438 148.359375 150.964844 148.507812 150.960938 L 148.527344 150.960938 C 148.675781 150.960938 148.800781 151.011719 148.90625 151.113281 C 149.011719 151.21875 149.066406 151.34375 149.070312 151.488281 L 149.152344 154.113281 C 149.160156 154.265625 149.109375 154.394531 149.007812 154.507812 C 148.902344 154.617188 148.777344 154.675781 148.625 154.679688 Z M 148.609375 154.679688 " fill-opacity="1" fill-rule="nonzero"/><path fill="#ffffff" d="M 111.625 114.082031 C 114.949219 110.511719 117.488281 106.332031 119.285156 101.90625 C 116.753906 105.957031 113.917969 109.773438 110.515625 112.96875 C 107.15625 116.054688 103.25 118.613281 98.917969 119.546875 C 94.007812 118.433594 89.660156 115.304688 86.085938 111.566406 C 84.242188 109.667969 82.582031 107.570312 81.097656 105.355469 C 79.550781 103.167969 78.222656 100.828125 76.925781 98.449219 C 78.625 103.59375 81.253906 108.484375 84.800781 112.714844 C 86.578125 114.828125 88.625 116.746094 90.945312 118.324219 C 93.273438 119.875 95.878906 121.136719 98.703125 121.683594 L 98.726562 121.691406 C 98.851562 121.710938 98.988281 121.710938 99.121094 121.683594 C 104.09375 120.613281 108.355469 117.660156 111.625 114.082031 " fill-opacity="1" fill-rule="nonzero"/><g clip-path="url(#9eef420271)"><path fill="#ffffff" d="M 64.148438 138.960938 C 60.558594 139.855469 56.996094 141.625 54.472656 144.558594 C 51.90625 147.457031 50.785156 151.425781 51.210938 155.046875 C 52.046875 151.488281 53.605469 148.335938 55.972656 145.933594 C 58.320312 143.519531 61.363281 141.773438 64.640625 140.648438 C 67.964844 139.617188 71.585938 139.199219 75.117188 138.324219 C 78.597656 137.445312 82.316406 136.113281 84.597656 133.210938 C 81.941406 135.726562 78.378906 136.691406 74.894531 137.226562 C 71.375 137.816406 67.769531 138.011719 64.148438 138.960938 " fill-opacity="1" fill-rule="nonzero"/></g><g clip-path="url(#4e7969d712)"><path fill="#ffffff" d="M 144.417969 147.621094 C 143.28125 145.28125 141.453125 143.265625 139.296875 141.789062 C 134.914062 138.847656 129.753906 137.832031 124.886719 136.890625 C 120.0625 135.875 114.835938 135.503906 112.105469 131.5 C 110.707031 129.613281 109.976562 127.253906 109.542969 124.855469 C 109.109375 122.4375 109.074219 119.941406 109.265625 117.449219 C 108.648438 119.882812 108.476562 122.421875 108.617188 124.96875 C 108.78125 127.5 109.445312 130.074219 110.851562 132.34375 C 112.195312 134.636719 114.605469 136.375 117.09375 137.160156 C 119.554688 138.046875 122.042969 138.472656 124.484375 138.980469 C 129.34375 139.945312 134.234375 140.839844 138.371094 143.246094 C 142.609375 145.53125 145.171875 150.082031 145.867188 155.046875 C 145.957031 152.539062 145.476562 149.988281 144.417969 147.621094 " fill-opacity="1" fill-rule="nonzero"/></g><path fill="#ffffff" d="M 90.578125 81.214844 C 86.585938 82.777344 82.867188 85.113281 79.949219 88.292969 C 78.5 89.875 77.261719 91.699219 76.507812 93.738281 C 75.804688 95.773438 75.601562 98.066406 76.394531 100.03125 C 76.09375 97.957031 76.519531 95.910156 77.476562 94.15625 C 78.386719 92.386719 79.703125 90.839844 81.148438 89.464844 C 84.085938 86.75 87.609375 84.652344 91.347656 83.222656 L 94.289062 82.113281 C 95.277344 81.664062 96.253906 81.195312 97.179688 80.617188 C 99.007812 79.46875 100.710938 78.101562 102.136719 76.484375 C 103.578125 74.878906 104.765625 73.039062 105.558594 71.03125 C 106.265625 69.015625 106.617188 66.785156 106.050781 64.753906 C 106.222656 68.988281 103.734375 72.570312 100.933594 75.324219 C 98 78.109375 94.582031 80.007812 90.578125 81.214844 " fill-opacity="1" fill-rule="nonzero"/><g clip-path="url(#4503a79b63)"><path fill="#ffffff" d="M 76.386719 82.515625 C 77.253906 78.238281 78.617188 74.0625 81.105469 70.621094 C 83.53125 67.128906 86.996094 64.425781 90.878906 62.589844 C 94.796875 60.839844 99.15625 59.878906 103.628906 60.050781 C 99.269531 59.027344 94.527344 59.40625 90.222656 61.027344 C 85.929688 62.664062 82.03125 65.550781 79.359375 69.382812 C 76.648438 73.21875 75.3125 77.78125 74.757812 82.246094 C 74.214844 86.734375 74.222656 91.308594 75.257812 95.679688 C 75.035156 91.226562 75.582031 86.808594 76.386719 82.515625 " fill-opacity="1" fill-rule="nonzero"/></g><path fill="#ffffff" d="M 117.90625 92.8125 C 118.355469 94.527344 118.613281 96.269531 118.996094 98.105469 C 119.511719 96.320312 119.710938 94.421875 119.5625 92.566406 C 119.4375 90.699219 119.0625 88.847656 118.472656 87.085938 C 117.859375 85.324219 117.105469 83.613281 116.136719 82.039062 C 115.164062 80.453125 114.046875 78.960938 112.632812 77.730469 C 113.984375 81.179688 115.34375 84.410156 116.433594 87.757812 C 117.023438 89.414062 117.457031 91.109375 117.90625 92.8125 " fill-opacity="1" fill-rule="nonzero"/><path fill="#ffffff" d="M 120.429688 77.535156 C 121.167969 80.035156 121.667969 82.621094 121.976562 85.226562 C 122.222656 87.832031 122.378906 90.472656 121.914062 93.15625 C 123.175781 90.71875 123.632812 87.890625 123.648438 85.136719 C 123.683594 82.367188 123.238281 79.609375 122.496094 76.9375 C 121.699219 74.28125 120.578125 71.6875 118.890625 69.425781 C 117.226562 67.148438 115 65.410156 112.632812 64.082031 C 114.5 66.074219 116.203125 68.113281 117.496094 70.351562 C 118.765625 72.59375 119.726562 75.035156 120.429688 77.535156 " fill-opacity="1" fill-rule="nonzero"/><path fill="#ffffff" d="M 87.128906 121.390625 C 86.839844 123.054688 86.300781 124.691406 85.300781 125.953125 C 84.375 127.207031 82.90625 128.042969 81.394531 128.746094 C 80.597656 129.117188 79.761719 129.425781 78.910156 129.703125 C 79.089844 129.199219 79.253906 128.699219 79.410156 128.171875 C 79.777344 126.828125 80 125.59375 80.105469 124.140625 C 80.222656 122.636719 79.695312 120.964844 78.722656 119.851562 C 77.789062 118.695312 76.691406 117.917969 75.722656 117.105469 C 74.742188 116.300781 73.832031 115.507812 73.222656 114.53125 C 72.871094 114.039062 72.707031 113.558594 72.585938 113.066406 C 72.542969 112.589844 72.652344 112.105469 72.929688 111.617188 C 74.117188 109.648438 76.878906 108.398438 78.082031 106.035156 C 77.253906 107.050781 76.183594 107.742188 75.101562 108.445312 C 74.027344 109.15625 72.847656 109.78125 71.9375 110.960938 C 71.496094 111.550781 71.191406 112.34375 71.199219 113.164062 C 71.257812 113.949219 71.511719 114.722656 71.871094 115.320312 C 72.550781 116.589844 73.542969 117.613281 74.511719 118.496094 C 76.511719 120.234375 78.277344 121.832031 78.007812 124.027344 C 77.753906 126.296875 77.15625 129.105469 76.082031 130.777344 L 76 130.894531 C 75.839844 131.148438 75.789062 131.46875 75.894531 131.777344 C 76.066406 132.3125 76.648438 132.613281 77.191406 132.433594 C 78.863281 131.882812 80.566406 131.261719 82.21875 130.425781 C 83.832031 129.582031 85.457031 128.46875 86.527344 126.796875 C 87.539062 125.148438 87.980469 123.28125 87.996094 121.457031 C 88.003906 119.644531 87.683594 117.808594 86.824219 116.253906 C 87.308594 117.949219 87.398438 119.703125 87.128906 121.390625 " fill-opacity="1" fill-rule="nonzero"/></svg>